<?xml version="1.0" encoding="UTF-8"?>
<svg width="13px" height="13px" viewBox="0 0 13 13" version="1.1" xmlns="http://www.w3.org/2000/svg" xmlns:xlink="http://www.w3.org/1999/xlink">
    <title>ADD_white</title>
    <g id="Page-1" stroke="none" stroke-width="1" fill="none" fill-rule="evenodd">
        <g id="add-(3)" transform="translate(0.000000, -17.180000)" fill="#FFFFFF" fill-rule="nonzero">
            <path d="M6.45097287,18.0608269 C7.27939999,18.0608269 7.95097287,18.7323998 7.95097287,19.5608269 L7.94997287,22.5608269 L10.9509729,22.5608269 C11.7794,22.5608269 12.4509729,23.2323998 12.4509729,24.0608269 C12.4509729,24.889254 11.7794,25.5608269 10.9509729,25.5608269 L7.94997287,25.5608269 L7.95097287,28.5608269 C7.95097287,29.389254 7.27939999,30.0608269 6.45097287,30.0608269 C5.62254574,30.0608269 4.95097287,29.389254 4.95097287,28.5608269 L4.94997287,25.5608269 L1.95097287,25.5608269 C1.12254574,25.5608269 0.450972867,24.889254 0.450972867,24.0608269 C0.450972867,23.2323998 1.12254574,22.5608269 1.95097287,22.5608269 L4.94997287,22.5608269 L4.95097287,19.5608269 C4.95097287,18.7323998 5.62254574,18.0608269 6.45097287,18.0608269 Z" id="ADD_white"></path>
        </g>
    </g>
</svg>