<?xml version="1.0" encoding="utf-8"?>
<!-- Generator: Adobe Illustrator 24.2.1, SVG Export Plug-In . SVG Version: 6.00 Build 0)  -->
<svg version="1.1" id="Layer_1" xmlns="http://www.w3.org/2000/svg" xmlns:xlink="http://www.w3.org/1999/xlink" x="0px" y="0px"
	 viewBox="0 0 13 13" style="enable-background:new 0 0 13 13;" xml:space="preserve">
<style type="text/css">
	.st0{fill:#2770A0;}
</style>
<path class="st0" d="M12.5,6.9c0-0.3-0.2-0.6-0.6-0.6h-5v-5c0-0.3-0.2-0.6-0.6-0.6S5.8,1,5.8,1.3v5h-5c-0.3,0-0.6,0.2-0.6,0.6
	c0,0.2,0.1,0.3,0.2,0.4s0.2,0.2,0.4,0.2h5v5c0,0.2,0.1,0.3,0.2,0.4C6.1,13,6.2,13,6.4,13c0.3,0,0.6-0.2,0.6-0.6l0-5h5
	C12.3,7.4,12.5,7.2,12.5,6.9z"/>
</svg>
