<svg xmlns="http://www.w3.org/2000/svg" viewBox="0 0 15 15"><defs><style>.cls-1{fill:#2770a1;}</style></defs><g id="Layer_2" data-name="Layer 2"><g id="Layer_1-2" data-name="Layer 1"><path class="cls-1" d="M14.17.83a2.71,2.71,0,0,0-2-.83H2.81a2.71,2.71,0,0,0-2,.83,2.71,2.71,0,0,0-.83,2v9.38a2.71,2.71,0,0,0,.83,2,2.71,2.71,0,0,0,2,.83h9.38A2.83,2.83,0,0,0,15,12.19V2.81a2.71,2.71,0,0,0-.83-2ZM12.5,8.12a.58.58,0,0,1-.19.44.57.57,0,0,1-.43.19H8.75v3.13a.65.65,0,0,1-.62.62H6.88a.58.58,0,0,1-.44-.19.57.57,0,0,1-.19-.43V8.75H3.12a.57.57,0,0,1-.43-.19.58.58,0,0,1-.19-.44V6.88a.58.58,0,0,1,.19-.44.57.57,0,0,1,.43-.19H6.25V3.12a.57.57,0,0,1,.19-.43.58.58,0,0,1,.44-.19H8.13a.57.57,0,0,1,.43.19.57.57,0,0,1,.19.43V6.25h3.13a.57.57,0,0,1,.43.19.58.58,0,0,1,.19.44Z"/></g></g></svg>