<svg id="Capa_1" data-name="Capa 1" xmlns="http://www.w3.org/2000/svg" viewBox="0 0 512 512"><defs><style>.cls-1{fill:#2770a0;}</style></defs><path class="cls-1" d="M221.41,346.64a20.69,20.69,0,0,1-14.87-6.28L129,260.8a20.76,20.76,0,0,1,29.74-29L222,296.73,354.5,171.06a20.76,20.76,0,0,1,28.57,30.12L235.69,340.94A20.73,20.73,0,0,1,221.41,346.64Z"/><path class="cls-1" d="M256,512C114.84,512,0,397.16,0,256S114.84,0,256,0,512,114.84,512,256,397.16,512,256,512Zm0-470.49C137.73,41.51,41.51,137.73,41.51,256S137.73,470.49,256,470.49,470.49,374.27,470.49,256,374.27,41.51,256,41.51Z"/></svg>