<svg xmlns="http://www.w3.org/2000/svg" width="14" height="20" viewBox="0 0 14 20">
  <path fill="#2770a0" d="M8.18175758,0 C8.18175758,0 8.18175758,0 8.18175758,0 C6.96763636,0 5.82624242,0.472787879 4.96775758,1.33127273 C4.10921212,2.18981818 3.63642424,3.33127273 3.63636364,4.54539394 L3.63636364,12.7274545 C3.63636364,14.2312727 4.85975758,15.4546667 6.36369697,15.4547273 C7.86751515,15.4546667 9.09090909,14.2311515 9.09090909,12.7273333 L9.09090909,8.006 C9.09090909,7.50393939 8.68387879,7.09690909 8.18181818,7.09690909 C7.67975758,7.09690909 7.27272727,7.50393939 7.27272727,8.006 L7.27272727,12.7273333 C7.27272727,13.2286667 6.86484848,13.6364848 6.36369697,13.6365455 C5.86242424,13.6365455 5.45454545,13.2287273 5.45454545,12.7274545 L5.45454545,4.54539394 C5.45454545,3.81690909 5.73830303,3.132 6.25339394,2.61690909 C6.76854545,2.10175758 7.45333333,1.81812121 8.18175758,1.81812121 C9.68563636,1.81812121 10.9090909,3.04151515 10.9091515,4.54527273 L10.9091515,13.636303 C10.9090303,16.1426667 8.87,18.1818182 6.36369697,18.1818182 C5.14957576,18.1818182 4.00806061,17.7090909 3.14957576,16.8505455 C2.2910303,15.9920606 1.81824242,14.8505455 1.81824242,13.6363636 L1.81812121,4.54539394 C1.81812121,4.04327273 1.41109091,3.63630303 0.909030303,3.63630303 C0.406969697,3.63630303 -6.06060606e-05,4.04333333 -6.06060606e-05,4.54539394 L-6.06060606e-05,13.6363636 C-6.06060606e-05,15.3361818 0.661939394,16.9342424 1.86387879,18.1362424 C3.06581818,19.3381818 4.66387879,20.0000606 6.36369697,20.0000606 C9.87248485,20.0000606 12.7273333,17.1453333 12.7273333,13.6364242 L12.7273333,4.54533333 C12.7273333,2.0390303 10.6881212,0 8.18175758,0 Z" transform="translate(.467)"/>
</svg>
