<svg id="Layer_1" data-name="Layer 1" xmlns="http://www.w3.org/2000/svg" viewBox="0 0 20 20"><defs><style>.cls-1{fill:#2770a0;}</style></defs><path class="cls-1" d="M15.78,4.22a.74.74,0,0,0-1,0L10,8.94,5.27,4.22a.74.74,0,1,0-1,1L9,10,4.22,14.73a.74.74,0,0,0,0,1,.76.76,0,0,0,.52.22.74.74,0,0,0,.53-.22L10,11.05l4.73,4.73a.76.76,0,0,0,.52.22.71.71,0,0,0,.53-.22.74.74,0,0,0,0-1L11.05,10l4.73-4.73A.74.74,0,0,0,15.78,4.22Z"/><path class="cls-1" d="M10,1a9,9,0,1,1-9,9,9,9,0,0,1,9-9m0-1A10,10,0,1,0,20,10,10,10,0,0,0,10,0Z"/></svg>