<svg xmlns="http://www.w3.org/2000/svg" width="13" height="13" viewBox="0 0 13 13">
  <path fill="#2770A0" d="M12.1654769,0.604400289 C11.8728613,0.311784692 11.4035721,0.311784692 11.1109565,0.604400289 L6.38493859,5.33041823 L1.65892065,0.604400289 C1.36630505,0.311784692 0.897015886,0.311784692 0.604400289,0.604400289 C0.311784692,0.897015886 0.311784692,1.36630505 0.604400289,1.65892065 L5.33041823,6.38493859 L0.604400289,11.1109565 C0.311784692,11.4035721 0.311784692,11.8728613 0.604400289,12.1654769 C0.747947563,12.3090242 0.941184278,12.3863189 1.12889994,12.3863189 C1.31661561,12.3863189 1.50985232,12.3145452 1.6533996,12.1654769 L6.37941754,7.43945895 L11.1054355,12.1654769 C11.2489828,12.3090242 11.4422195,12.3863189 11.6299351,12.3863189 C11.8231719,12.3863189 12.0108875,12.3145452 12.1544348,12.1654769 C12.4470504,11.8728613 12.4470504,11.4035721 12.1544348,11.1109565 L7.43945895,6.38493859 L12.1654769,1.65892065 C12.4580925,1.36630505 12.4580925,0.897015886 12.1654769,0.604400289 Z" transform="translate(0 .5)"/>
</svg>
