<svg xmlns="http://www.w3.org/2000/svg" viewBox="0 0 15 14.06"><defs><style>.cls-1{fill:#2770a0;}</style></defs><g id="Layer_2" data-name="Layer 2"><g id="Capa_1" data-name="Capa 1"><path class="cls-1" d="M14.53,1.88H8.44V.47A.46.46,0,0,0,8.27.11.46.46,0,0,0,7.88,0L.38,1.41A.48.48,0,0,0,0,1.88V12.19a.47.47,0,0,0,.38.46l7.5,1.4H8a.47.47,0,0,0,.47-.47v-1.4h6.09a.47.47,0,0,0,.47-.47V2.34A.47.47,0,0,0,14.53,1.88ZM6.45,8.6a.47.47,0,0,1,0,.66.48.48,0,0,1-.67,0l0,0L4.38,7.66,3.18,9.2a.46.46,0,0,1-.65.08.47.47,0,0,1-.09-.66L3.75,6.94,2.46,5.47a.47.47,0,1,1,.71-.62L4.34,6.19,5.72,4.4a.47.47,0,0,1,.66-.08A.46.46,0,0,1,6.46,5h0L5,6.9Zm7.61,2.65H8.44v-.94h1.4a.47.47,0,1,0,0-.93H8.44V8.44h1.4a.47.47,0,0,0,0-.94H8.44V6.56h1.4a.47.47,0,1,0,0-.93H8.44V4.69h1.4a.47.47,0,0,0,0-.94H8.44V2.81h5.62Z"/><path class="cls-1" d="M12.66,3.75h-.94a.47.47,0,0,0,0,.94h.94a.47.47,0,0,0,0-.94Z"/><path class="cls-1" d="M12.66,5.63h-.94a.47.47,0,1,0,0,.93h.94a.47.47,0,0,0,0-.93Z"/><path class="cls-1" d="M12.66,7.5h-.94a.47.47,0,1,0,0,.94h.94a.47.47,0,0,0,0-.94Z"/><path class="cls-1" d="M12.66,9.38h-.94a.47.47,0,1,0,0,.93h.94a.47.47,0,0,0,0-.93Z"/></g></g></svg>