<svg id="Capa_1" data-name="Capa 1" xmlns="http://www.w3.org/2000/svg" viewBox="0 0 512 480.02"><defs><style>.cls-1{fill:#666;}</style></defs><path class="cls-1" d="M496,80H288V32a16,16,0,0,0-5.79-12.32,15.73,15.73,0,0,0-13.15-3.39l-256,48A16,16,0,0,0,0,80V432a16,16,0,0,0,13.06,15.71l256,48A15.19,15.19,0,0,0,272,496a16,16,0,0,0,16-16V432H496a16,16,0,0,0,16-16V96A16,16,0,0,0,496,80ZM220,309.48A16,16,0,1,1,196,330.54l-46.53-53.15-40.8,52.48a16,16,0,0,1-25.28-19.68L128,252.84l-44-50.3a16,16,0,0,1,24.09-21.06L148,227.12l47.39-60.93a16,16,0,1,1,25.25,19.68l-51.2,65.79ZM480,400H288V368h48a16,16,0,0,0,0-32H288V304h48a16,16,0,0,0,0-32H288V240h48a16,16,0,0,0,0-32H288V176h48a16,16,0,0,0,0-32H288V112H480Z" transform="translate(0 -15.99)"/><path class="cls-1" d="M432,144H400a16,16,0,0,0,0,32h32a16,16,0,0,0,0-32Z" transform="translate(0 -15.99)"/><path class="cls-1" d="M432,208H400a16,16,0,0,0,0,32h32a16,16,0,0,0,0-32Z" transform="translate(0 -15.99)"/><path class="cls-1" d="M432,272H400a16,16,0,0,0,0,32h32a16,16,0,0,0,0-32Z" transform="translate(0 -15.99)"/><path class="cls-1" d="M432,336H400a16,16,0,0,0,0,32h32a16,16,0,0,0,0-32Z" transform="translate(0 -15.99)"/></svg>