<svg id="Layer_1" data-name="Layer 1" xmlns="http://www.w3.org/2000/svg" viewBox="0 0 384 384"><defs><style>.cls-1{fill:#4aaf7c;}</style></defs><path class="cls-1" d="M960,732c105.92,0,192-86.08,192-192s-86.08-192-192-192S768,434.08,768,540s86.08,192,192,192Zm80-272a32,32,0,1,1-32,32,32.09,32.09,0,0,1,32-32Zm-160,0a32,32,0,1,1-32,32,32.09,32.09,0,0,1,32-32ZM827.27,569.2a16,16,0,0,1,20,10.54C861.21,624.64,907.57,656,960,656s98.79-31.36,112.72-76.26a16,16,0,0,1,30.56,9.48c-18,58.16-77,98.76-143.28,98.76s-125.23-40.62-143.28-98.76a16,16,0,0,1,10.55-20Zm0,0" transform="translate(-768 -348)"/></svg>