<svg xmlns="http://www.w3.org/2000/svg" width="21" height="21" viewBox="0 0 21 21">
  <g fill="#2770A0" transform="translate(.7 .82)">
    <path d="M9.98050682,19.9610136 C4.46842511,19.9610136 0,15.4925885 0,9.98050682 C0,4.46842511 4.46842511,0 9.98050682,0 C15.4925885,0 19.9610136,4.46842511 19.9610136,9.98050682 C19.9610136,12.6275018 18.909499,15.1660828 17.0377909,17.0377909 C15.1660828,18.909499 12.6275018,19.9610136 9.98050682,19.9610136 Z M9.98050682,1.98050682 C5.56222882,1.98050682 1.98050682,5.56222882 1.98050682,9.98050682 C1.98050682,14.3987848 5.56222882,17.9805068 9.98050682,17.9805068 C14.3987848,17.9805068 17.9805068,14.3987848 17.9805068,9.98050682 C17.9805068,5.56222882 14.3987848,1.98050682 9.98050682,1.98050682 L9.98050682,1.98050682 Z"/>
    <path d="M9.98050682,15.3474316 C9.29149661,15.3474316 8.73294347,14.7343813 8.73294347,13.9781455 L8.73294347,9.87028743 C8.73294347,9.11405163 9.29149661,8.50100139 9.98050682,8.50100139 C10.669517,8.50100139 11.2280702,9.11405163 11.2280702,9.87028743 L11.2280702,13.9781455 C11.2280702,14.7343813 10.669517,15.3474316 9.98050682,15.3474316 Z"/>
    <circle cx="9.981" cy="5.861" r="1.248"/>
  </g>
</svg>
