<svg xmlns="http://www.w3.org/2000/svg" viewBox="0 0 150 129"><defs><style>.cls-1{fill:#666;}</style></defs><g id="Final_drawing" data-name="Final drawing"><path class="cls-1" d="M141,0H9A9,9,0,0,0,0,9V99a9,9,0,0,0,9,9H53.48a2.5,2.5,0,0,1,2,4L49,121.09A5,5,0,0,0,53.05,129h44.4a5,5,0,0,0,4.07-7.91L95,112a2.5,2.5,0,0,1,2-4h44a9,9,0,0,0,9-9V9A9,9,0,0,0,141,0Zm-2.56,77.1a3.67,3.67,0,0,1-3.68,3.67H15.24a3.67,3.67,0,0,1-3.68-3.67V16.24a3.68,3.68,0,0,1,3.68-3.68H134.76a3.68,3.68,0,0,1,3.68,3.68Z"/><path d="M66.32,34.24a2.86,2.86,0,1,1-3,2.86A2.89,2.89,0,0,1,66.32,34.24Zm17.3,0a2.86,2.86,0,1,1-3,2.86A2.88,2.88,0,0,1,83.62,34.24Z"/><path d="M75,49.59a40.07,40.07,0,0,1,21.8,6.33l-1.14,2.46A40,40,0,0,0,75,52.87a40,40,0,0,0-20.66,5.51L53.2,55.92A40.07,40.07,0,0,1,75,49.59Z"/></g></svg>