<svg id="Layer_1" data-name="Layer 1" xmlns="http://www.w3.org/2000/svg" viewBox="0 0 116.8 100.11"><defs><style>.cls-1{fill:#2770a1;}</style></defs><path class="cls-1" d="M990.69,548.4h-4.18a2,2,0,0,0-2.08,2.08v20.86A10.45,10.45,0,0,1,974,581.77H919.77a10.46,10.46,0,0,1-10.43-10.43V517.11a10.48,10.48,0,0,1,10.43-10.43h45.89a2,2,0,0,0,2.08-2.08v-4.17a2,2,0,0,0-2.08-2.09H919.77A18.81,18.81,0,0,0,901,517.11v54.23a18.8,18.8,0,0,0,18.77,18.77H974a18.78,18.78,0,0,0,18.77-18.77V550.48a2,2,0,0,0-2.08-2.08Zm0,0" transform="translate(-901 -490)"/><path class="cls-1" d="M1016.56,491.24a4,4,0,0,0-2.93-1.24H980.26a4.22,4.22,0,0,0-4.17,4.17,4,4,0,0,0,1.23,2.94l11.47,11.46L946.3,551.08a2,2,0,0,0,0,3l7.43,7.43a2.06,2.06,0,0,0,1.5.65,2.1,2.1,0,0,0,1.5-.65L999.22,519l11.47,11.48a4.18,4.18,0,0,0,7.11-2.94V494.17a4,4,0,0,0-1.24-2.93Zm0,0" transform="translate(-901 -490)"/></svg>