<svg id="Layer_1" data-name="Layer 1" xmlns="http://www.w3.org/2000/svg" viewBox="0 0 384 384"><defs><style>.cls-1{fill:#d64541;}</style></defs><path class="cls-1" d="M960,348c-105.92,0-192,86.08-192,192s86.08,192,192,192,192-86.08,192-192-86.08-192-192-192ZM848,493.12a32,32,0,1,1,32,32,32,32,0,0,1-32-32Zm203.31,154.77a16,16,0,0,1-22.62,0,97.15,97.15,0,0,0-137.38,0,16,16,0,0,1-22.62-22.62,129.11,129.11,0,0,1,182.62,0,16,16,0,0,1,0,22.62ZM1040,525.12a32,32,0,1,1,32-32,32.09,32.09,0,0,1-32,32Zm0,0" transform="translate(-768 -348)"/></svg>