<svg xmlns="http://www.w3.org/2000/svg" width="21" height="20" viewBox="0 0 21 20">
  <path fill="#989898" d="M19.782963,18.7355556 L14.4059259,13.3583333 C15.5848148,11.9448148 16.2962963,10.1285185 16.2962963,8.14814815 C16.2962963,3.65518519 12.6411111,-2.63163976e-15 8.14814815,-2.63163976e-15 C3.65518519,-2.63163976e-15 0,3.65518519 0,8.14814815 C0,12.6411111 3.65518519,16.2962963 8.14814815,16.2962963 C10.1285185,16.2962963 11.9448148,15.5848148 13.3583333,14.4059259 L18.7355556,19.7831481 C18.8801852,19.9277778 19.0698148,20.0001852 19.2592593,20.0001852 C19.4487037,20.0001852 19.6383333,19.9277778 19.782963,19.7831481 C20.0724074,19.4937037 20.0724074,19.0248148 19.782963,18.7355556 Z M1.48148148,8.14814815 C1.48148148,4.47222222 4.47185185,1.48148148 8.14814815,1.48148148 C11.8244444,1.48148148 14.8148148,4.47222222 14.8148148,8.14814815 C14.8148148,11.8240741 11.8244444,14.8148148 8.14814815,14.8148148 C4.47185185,14.8148148 1.48148148,11.8240741 1.48148148,8.14814815 Z" transform="translate(.5 .027)"/>
</svg>
