<svg id="Layer_1" data-name="Layer 1" xmlns="http://www.w3.org/2000/svg" viewBox="0 0 512 435.27"><defs><style>.cls-1{fill:#da1a1a;}</style></defs><path class="cls-1" d="M507.49,426.07,282.86,53.54a31.36,31.36,0,0,0-53.73,0L4.51,426.07a31.37,31.37,0,0,0,26.86,47.57H480.63a31.37,31.37,0,0,0,26.86-47.57ZM256.17,167.23c12.9,0,23.81,7.28,23.81,20.18,0,39.36-4.63,95.92-4.63,135.29,0,10.25-11.24,14.55-19.18,14.55-10.59,0-19.52-4.3-19.52-14.55,0-39.37-4.63-95.93-4.63-135.29C232,174.51,242.61,167.23,256.17,167.23ZM256.5,411a25.47,25.47,0,1,1,0-50.94c13.56,0,25.14,11.58,25.14,25.47C281.64,399.11,270.06,411,256.5,411Z" transform="translate(0 -38.36)"/></svg>