<svg xmlns="http://www.w3.org/2000/svg" viewBox="0 0 11.97 11.97"><defs><style>.cls-1{fill:#003f7a;}</style></defs><g id="Layer_2" data-name="Layer 2"><g id="Layer_1-2" data-name="Layer 1"><g id="Layer_2-2" data-name="Layer 2"><g id="Layer_1-2-2" data-name="Layer 1-2"><path class="cls-1" d="M11.75.19a.76.76,0,0,0-1,0L6,5,1.24.19a.75.75,0,0,0-1,.24.76.76,0,0,0,0,.81L5,6,.19,10.7a.76.76,0,0,0,0,1A.72.72,0,0,0,.71,12a.67.67,0,0,0,.53-.22L6,7l4.73,4.73a.74.74,0,0,0,.52.22.66.66,0,0,0,.53-.22.74.74,0,0,0,0-1L7,6l4.73-4.73a.73.73,0,0,0,0-1Z"/></g></g></g></g></svg>